<mxfile host="app.diagrams.net" modified="2023-09-16T05:51:52.741Z" agent="Mozilla/5.0 (Windows NT 10.0; Win64; x64) AppleWebKit/537.36 (KHTML, like Gecko) Chrome/116.0.0.0 Safari/537.36" etag="_U4x_n5ke7tciyYPk1_I" version="21.7.5" type="device">
  <diagram name="Page-1" id="I3D9PNbGDmf9T-FdHqY3">
    <mxGraphModel dx="1500" dy="763" grid="1" gridSize="10" guides="1" tooltips="1" connect="1" arrows="1" fold="1" page="1" pageScale="1" pageWidth="850" pageHeight="1100" math="0" shadow="0">
      <root>
        <mxCell id="0" />
        <mxCell id="1" parent="0" />
        <mxCell id="c0cJQhz-4YLnYJj--Jky-1" value="" style="whiteSpace=wrap;html=1;aspect=fixed;" vertex="1" parent="1">
          <mxGeometry x="90" y="240" width="680" height="680" as="geometry" />
        </mxCell>
        <mxCell id="c0cJQhz-4YLnYJj--Jky-2" value="&lt;font style=&quot;font-size: 27px;&quot;&gt;STICKY HEADER&lt;/font&gt;" style="rounded=0;whiteSpace=wrap;html=1;" vertex="1" parent="1">
          <mxGeometry x="90" y="240" width="680" height="60" as="geometry" />
        </mxCell>
        <mxCell id="c0cJQhz-4YLnYJj--Jky-3" value="&lt;font style=&quot;font-size: 20px;&quot;&gt;SIDE MENUBAR&lt;/font&gt;" style="rounded=0;whiteSpace=wrap;html=1;" vertex="1" parent="1">
          <mxGeometry x="90" y="300" width="150" height="620" as="geometry" />
        </mxCell>
        <mxCell id="c0cJQhz-4YLnYJj--Jky-4" value="&lt;font style=&quot;font-size: 20px;&quot;&gt;TITLE&lt;/font&gt;" style="rounded=0;whiteSpace=wrap;html=1;" vertex="1" parent="1">
          <mxGeometry x="240" y="330" width="530" height="60" as="geometry" />
        </mxCell>
        <mxCell id="c0cJQhz-4YLnYJj--Jky-6" value="&lt;font style=&quot;font-size: 24px;&quot;&gt;FILTER&lt;/font&gt;" style="rounded=0;whiteSpace=wrap;html=1;" vertex="1" parent="1">
          <mxGeometry x="240" y="420" width="530" height="100" as="geometry" />
        </mxCell>
        <mxCell id="c0cJQhz-4YLnYJj--Jky-7" value="&lt;font style=&quot;font-size: 24px;&quot;&gt;CHART.JS&lt;/font&gt;" style="rounded=0;whiteSpace=wrap;html=1;" vertex="1" parent="1">
          <mxGeometry x="240" y="540" width="530" height="150" as="geometry" />
        </mxCell>
        <mxCell id="c0cJQhz-4YLnYJj--Jky-8" value="&lt;font style=&quot;font-size: 22px;&quot;&gt;TABLE&lt;/font&gt;" style="rounded=0;whiteSpace=wrap;html=1;" vertex="1" parent="1">
          <mxGeometry x="240" y="710" width="530" height="80" as="geometry" />
        </mxCell>
        <mxCell id="c0cJQhz-4YLnYJj--Jky-9" value="&lt;font style=&quot;font-size: 20px;&quot;&gt;PAGINATION&lt;/font&gt;" style="rounded=0;whiteSpace=wrap;html=1;fontSize=20;" vertex="1" parent="1">
          <mxGeometry x="240" y="820" width="530" height="40" as="geometry" />
        </mxCell>
        <mxCell id="c0cJQhz-4YLnYJj--Jky-10" value="&lt;font style=&quot;font-size: 20px;&quot;&gt;FOOTER&lt;/font&gt;" style="rounded=0;whiteSpace=wrap;html=1;" vertex="1" parent="1">
          <mxGeometry x="240" y="890" width="530" height="30" as="geometry" />
        </mxCell>
      </root>
    </mxGraphModel>
  </diagram>
</mxfile>
